<svg width="126" height="54" viewBox="0 0 126 54" fill="none" xmlns="http://www.w3.org/2000/svg">
<path d="M5.67046 25.5735L7.57095 23.673C7.69489 23.549 7.75687 23.3941 7.75687 23.2288V20.5434C7.75687 20.3678 7.69489 20.2129 7.57095 20.0992L5.67046 18.1781C5.54652 18.0542 5.39159 17.9922 5.22633 17.9922H2.54086C2.36528 17.9922 2.21035 18.0542 2.09673 18.1781L0.185917 20.0889C0.0619723 20.2129 0 20.3678 0 20.5331V23.2185C0 23.3941 0.0619723 23.549 0.185917 23.6627L2.0864 25.5838C2.21035 25.7077 2.36528 25.7697 2.53054 25.7697H5.216C5.39159 25.7594 5.55685 25.6974 5.67046 25.5735Z" fill="#FFBE16"/>
<path d="M24.9129 0.309007C24.1796 0.309007 23.6838 0.309007 23.6115 0.309007C20.6781 0.28835 18.3748 1.04235 16.7532 2.54001C14.9457 4.22359 14.0368 6.69215 14.0368 9.88373L13.9955 45.4248C13.9955 46.2615 13.8095 46.8605 13.4687 47.2014C13.1692 47.4803 12.7354 47.6662 12.157 47.7385H4.30713V53.1094H10.4837C10.8968 53.1301 11.3203 53.1507 11.7128 53.1507C14.0471 53.1507 15.834 52.7376 17.0631 51.9009C18.819 50.7235 19.6969 48.5338 19.6969 45.4248V23.9721H33.1862V18.5289H19.6453V9.89405C19.6453 8.46869 19.9861 7.40483 20.6781 6.72314C21.3495 6.0621 22.3927 5.73158 23.7664 5.74191C23.8284 5.74191 24.2932 5.74191 25.0059 5.74191C27.2369 5.74191 33.1862 5.76257 33.4857 5.78323L33.8886 5.82454V0.350322L33.5477 0.329664C33.2895 0.319336 29.2406 0.319336 24.9129 0.309007Z" fill="#FFBE16"/>
<path d="M41.4284 19.4792C41.7692 17.6614 42.5955 16.236 43.8556 15.1825C45.1364 14.1289 46.7167 13.6125 48.6275 13.6125C50.3111 13.6125 51.7778 14.1083 53.0482 15.0998C54.298 16.0811 55.114 17.5581 55.4548 19.4999H41.4284V19.4792ZM48.6792 8.93359C44.9815 8.93359 41.9655 10.1421 39.6105 12.5383C37.2556 14.9449 36.0781 17.9299 36.0781 21.4933C36.0781 25.1187 37.2659 28.1243 39.6622 30.5C42.0378 32.8756 45.1881 34.0634 49.0613 34.0634C53.6783 34.0634 57.159 32.3281 59.5037 28.8577L55.2586 26.3788C53.8952 28.3619 51.8397 29.3431 49.113 29.3431C47.1402 29.3431 45.4669 28.868 44.1035 27.8765C42.7401 26.9056 41.8622 25.5215 41.48 23.7037H60.4642C60.5882 22.8051 60.6605 22.0924 60.6605 21.5553C60.6605 18.0538 59.545 15.0792 57.2933 12.6209C55.052 10.1627 52.1806 8.93359 48.6792 8.93359Z" fill="#FFBE16"/>
<path d="M71.0306 2.85938L65.8765 4.3777V9.54205H61.4868V14.5102H65.8765V25.975C65.8765 29.0943 66.7338 31.2324 68.4587 32.3995C70.1733 33.5666 73.0137 33.8972 76.9489 33.4324V28.8051C75.6475 28.8671 74.5526 28.8774 73.685 28.8258C72.8174 28.7741 72.1461 28.5469 71.7122 28.1131C71.2784 27.6793 71.0512 26.9666 71.0512 25.9854V14.5205H76.9489V9.54205H71.0306V2.85938Z" fill="#FFBE16"/>
<path d="M94.6315 27.9917C93.5056 28.6528 92.2352 29.0039 90.8408 29.0039C88.7441 29.0039 86.9882 28.2913 85.5628 26.8556C84.1478 25.4199 83.4351 23.633 83.4351 21.5156C83.4351 19.3776 84.1478 17.601 85.5628 16.1757C86.9779 14.74 88.7441 14.0273 90.8408 14.0273C92.2765 14.0273 93.5366 14.3578 94.6315 15.0085C95.7263 15.6592 96.5423 16.5578 97.0897 17.7147L101.531 15.1325C100.57 13.2527 99.1554 11.755 97.2343 10.6498C95.3338 9.53431 93.2061 8.97656 90.8925 8.97656C87.2981 8.97656 84.3027 10.185 81.8962 12.5813C79.4896 14.9879 78.3018 17.9729 78.3018 21.5363C78.3018 25.079 79.4999 28.0434 81.8962 30.4706C84.3027 32.8875 87.2981 34.096 90.8925 34.096C93.2164 34.096 95.3338 33.5382 97.2343 32.4227C99.1348 31.3072 100.612 29.7889 101.624 27.8884L97.1827 25.3372C96.6042 26.4321 95.7573 27.3204 94.6315 27.9917Z" fill="#FFBE16"/>
<path d="M123.459 11.5578C121.775 9.81228 119.565 8.92401 116.828 8.92401C113.45 8.92401 110.982 10.1531 109.432 12.601V0H104.278V33.4341H109.432V20.6264C109.432 18.3025 109.98 16.5673 111.106 15.4414C112.231 14.3156 113.688 13.7475 115.495 13.7475C117.148 13.7475 118.449 14.2226 119.41 15.1832C120.37 16.1438 120.846 17.5072 120.846 19.2837V33.4237H126V18.7776C125.989 15.71 125.153 13.3034 123.459 11.5578Z" fill="#FFBE16"/>
</svg>
